<svg xmlns="http://www.w3.org/2000/svg" id="Layer_1" width="200" height="200" data-name="Layer 1" viewBox="0 0 67.26 117.4"><defs><style>.cls-1{fill:#00a2ed}.cls-2{fill:#5f9dcf}</style></defs><rect width="3.53" height="90.52" x="6.11" class="cls-1" transform="translate(15.75 90.52) rotate(180)"/><rect width="3.53" height="90.52" x="17.52" class="cls-1" transform="translate(38.56 90.52) rotate(180)"/><rect width="3.53" height="90.52" x="11.63" class="cls-1" transform="translate(26.78 90.52) rotate(180)"/><rect width="3.53" height="90.52" x="23.41" class="cls-1" transform="translate(50.34 90.52) rotate(180)"/><rect width="3.41" height="35.19" x="41.54" y="71.22" class="cls-1" transform="translate(-45.57 132.06) rotate(-90)"/><rect width="3.41" height="35.19" x="41.54" y="63.77" class="cls-1" transform="translate(-38.13 124.62) rotate(-90)"/><rect width="3.41" height="34.7" x="41.79" y="57.2" class="cls-1" transform="translate(-31.06 118.04) rotate(-90)"/><path d="M8.5,95.31h1.84v12.61h6.05v1.54H8.5Z" class="cls-2"/><path d="M21,105l-1.46,4.45H17.6l4.82-14.15h2.2l4.83,14.15h-2L26,105Zm4.65-1.43-1.4-4.07c-.31-.92-.52-1.77-.73-2.58h-.05c-.2.83-.42,1.69-.7,2.56l-1.4,4.09Z" class="cls-2"/><path d="M42.2,108.82a12.85,12.85,0,0,1-4.35.78,6.63,6.63,0,0,1-7.26-7.12c0-4.22,2.91-7.31,7.65-7.31a8.93,8.93,0,0,1,3.54.65l-.46,1.49a7.11,7.11,0,0,0-3.13-.61,5.29,5.29,0,0,0-5.68,5.68c0,3.59,2.15,5.71,5.46,5.71a5.9,5.9,0,0,0,2.43-.38v-4.22H37.54V102H42.2Z" class="cls-2"/><path d="M52.51,102.83H47v5.11h6.14v1.52h-8V95.31h7.65v1.52H47v4.48h5.49Z" class="cls-2"/></svg>